<svg width="100" height="28" viewBox="0 0 100 28" version="1.1" xmlns="http://www.w3.org/2000/svg"><title>logo_light</title><g id="-Components" stroke="none" stroke-width="1" fill="none" fill-rule="evenodd"><g id="Desktop-HD"><g id="logo_light"><path id="bound" fill-opacity="0" fill="#FFF" d="M0 0h100v30H0z" transform="translate(0 -1)"/><path d="M97.45 6.72a8.689 8.689 0 0 0-6.157-2.551 8.69 8.69 0 0 0-6.158 2.55 8.69 8.69 0 0 0-2.55 6.157c0 2.4.977 4.586 2.55 6.158a8.689 8.689 0 0 0 6.158 2.55c2.4 0 4.586-.977 6.157-2.55a8.687 8.687 0 0 0 2.55-6.158 8.685 8.685 0 0 0-2.55-6.157m-1.994 10.32a5.863 5.863 0 0 1-4.163 1.725 5.864 5.864 0 0 1-4.164-1.724 5.864 5.864 0 0 1-1.724-4.164c0-1.63.657-3.093 1.724-4.163a5.865 5.865 0 0 1 4.164-1.724c1.63 0 3.093.657 4.163 1.724a5.863 5.863 0 0 1 1.724 4.163c0 1.63-.656 3.094-1.724 4.164zM84.986 3.438c.174-.11.159-.262.101-.375l-1.234-1.94C83.75.958 83.602.99 83.5 1.04c-1.84 1.134-6.386 5.056-6.386 11.835v8.001c.013.127.082.262.28.266h2.262c.194-.004.264-.135.278-.26v-8.007c0-5.838 4.12-8.846 5.052-9.439zM72.406 6.72a8.686 8.686 0 0 0-6.157-2.55c-2.4 0-4.586.976-6.158 2.55a8.687 8.687 0 0 0-2.55 6.157 8.689 8.689 0 0 0 2.55 6.158 8.69 8.69 0 0 0 6.158 2.55c2.4 0 4.586-.977 6.156-2.55a8.688 8.688 0 0 0 2.551-6.158c0-2.4-.976-4.585-2.55-6.157zm-1.994 10.32a5.864 5.864 0 0 1-4.163 1.725 5.86 5.86 0 0 1-4.163-1.724 5.86 5.86 0 0 1-1.724-4.164 5.86 5.86 0 0 1 1.724-4.163 5.862 5.862 0 0 1 4.163-1.724c1.63 0 3.093.657 4.163 1.724a5.865 5.865 0 0 1 1.724 4.163c0 1.63-.656 3.094-1.724 4.164zM53.178 6.72a8.686 8.686 0 0 0-6.157-2.55 8.69 8.69 0 0 0-6.157 2.55 8.693 8.693 0 0 0-2.55 6.157c0 2.4.978 4.586 2.55 6.158a8.688 8.688 0 0 0 6.157 2.55c2.251 0 4.314-.86 5.858-2.264v.818c-.001 1.63-.657 3.093-1.725 4.163a5.863 5.863 0 0 1-4.163 1.725 5.855 5.855 0 0 1-3.978-1.55c-.09-.068-.214-.112-.339-.021l-1.659 1.66c-.106.125-.076.25-.01.342a8.684 8.684 0 0 0 5.986 2.389 8.69 8.69 0 0 0 6.157-2.55 8.686 8.686 0 0 0 2.55-6.158l.03-7.262c.001-2.4-.976-4.585-2.55-6.157zm-.271 6.157l-.028.6a5.86 5.86 0 0 1-1.694 3.564 5.863 5.863 0 0 1-4.164 1.724 5.862 5.862 0 0 1-4.162-1.724 5.863 5.863 0 0 1-1.725-4.164c0-1.63.657-3.093 1.725-4.163a5.86 5.86 0 0 1 4.162-1.724c1.63 0 3.094.657 4.164 1.724a5.863 5.863 0 0 1 1.724 4.163h-.002zM33.994 6.72a8.688 8.688 0 0 0-6.158-2.55c-2.4 0-4.585.976-6.156 2.55a8.686 8.686 0 0 0-2.55 6.157 8.688 8.688 0 0 0 2.55 6.158 8.687 8.687 0 0 0 6.156 2.55c2.4 0 4.586-.977 6.158-2.55a8.688 8.688 0 0 0 2.55-6.158c0-2.4-.977-4.585-2.55-6.157zM32 17.04a5.863 5.863 0 0 1-4.164 1.725 5.86 5.86 0 0 1-4.162-1.724 5.863 5.863 0 0 1-1.724-4.164c0-1.63.656-3.093 1.724-4.163a5.862 5.862 0 0 1 4.162-1.724c1.63 0 3.094.657 4.164 1.724a5.863 5.863 0 0 1 1.724 4.163c0 1.63-.656 3.093-1.724 4.164zM14.864 6.72a8.686 8.686 0 0 0-6.157-2.55 8.69 8.69 0 0 0-6.157 2.55A8.693 8.693 0 0 0 0 12.876c0 2.4.978 4.586 2.55 6.158a8.688 8.688 0 0 0 6.157 2.55c2.251 0 4.314-.86 5.858-2.264v.818c-.001 1.63-.657 3.093-1.725 4.163a5.863 5.863 0 0 1-4.163 1.725 5.856 5.856 0 0 1-3.978-1.55c-.09-.068-.214-.112-.339-.021l-1.66 1.66c-.105.125-.076.25-.01.342a8.684 8.684 0 0 0 5.987 2.389 8.69 8.69 0 0 0 6.157-2.55 8.686 8.686 0 0 0 2.55-6.158l.03-7.262c.001-2.4-.976-4.585-2.55-6.157zm-.271 6.157l-.028.6a5.86 5.86 0 0 1-1.694 3.564 5.863 5.863 0 0 1-4.164 1.724 5.862 5.862 0 0 1-4.162-1.724 5.863 5.863 0 0 1-1.725-4.164c0-1.63.657-3.093 1.725-4.163a5.86 5.86 0 0 1 4.162-1.724c1.63 0 3.094.657 4.164 1.724a5.863 5.863 0 0 1 1.724 4.163h-.002z" id="wordmark" fill="#323237" transform="translate(0 -1)"/></g></g></g></svg>