<svg xmlns="http://www.w3.org/2000/svg" viewBox="70 0 400.81 135.08"><defs><style>.cls-1{fill:#ffe900;}.cls-2{fill:#888b8d}</style></defs><title>資產 1</title><g id="圖層_2" data-name="圖層 2"><g id="圖層_1-2" data-name="圖層 1"><path class="cls-1" d="M402.21,0h-6.62a91,91,0,0,0-46.82,13l-.88.53L325.39,27H203.9l9.33,5.6a55.43,55.43,0,0,0,28.52,7.9h61.12L296,44.62A65.83,65.83,0,0,1,262.14,54H131.87l90-54h-27L82.37,67.5H266.64a65.83,65.83,0,0,0,33.88-9.38l52.76-31.65a90.93,90.93,0,0,1,46.81-13h65.08V0Z"/><path class="cls-1" d="M343.67,0H264.52A55.4,55.4,0,0,0,236,7.9l-9.34,5.6h79.15a55.4,55.4,0,0,0,28.52-7.9Z"/><path class="cls-1" d="M356.72,40.61l-13.53,8.11,13.36,8a75.75,75.75,0,0,0,39,10.78h69.65V54H400a75.74,75.74,0,0,1-38.73-10.64Z"/><path class="cls-2" d="M0,134.87v-24.6H4.15v21.25H17.31v3.35Z"/><path class="cls-2" d="M36.74,133.18a12,12,0,0,1-7.07,1.9q-6.1,0-9.67-3.25l2.76-2.45a10,10,0,0,0,7,2.35q5.64,0,5.64-3.77a3.08,3.08,0,0,0-1.07-2.56,6,6,0,0,0-3-1L28.1,124a9.73,9.73,0,0,1-5.18-2,5.84,5.84,0,0,1-2-4.7,6.35,6.35,0,0,1,2.46-5.22,10.24,10.24,0,0,1,6.68-2,12.78,12.78,0,0,1,8.48,2.8l-2.65,2.35a8.89,8.89,0,0,0-5.95-1.9c-3.32,0-5,1.28-5,3.84a2.76,2.76,0,0,0,1,2.28,6.29,6.29,0,0,0,3.07,1.14l3.11.41a10.56,10.56,0,0,1,5.1,1.83,6.06,6.06,0,0,1,2.23,5A6.21,6.21,0,0,1,36.74,133.18Z"/><path class="cls-2" d="M64,127.51a8.89,8.89,0,0,1-3.38,5.63,10.29,10.29,0,0,1-6.37,1.94,10.36,10.36,0,0,1-7.18-2.63,7.3,7.3,0,0,1-2.34-4.07,14.54,14.54,0,0,1-.27-2.6c0-.43,0-.94,0-1.52v-3.38c0-.58,0-1.08,0-1.52a14.42,14.42,0,0,1,.27-2.59,7.36,7.36,0,0,1,2.34-4.08,10.36,10.36,0,0,1,7.18-2.63q8.25,0,9.75,7.57H59.81a5.18,5.18,0,0,0-5.53-4.21,5.55,5.55,0,0,0-4,1.48,5,5,0,0,0-1.34,2.49,28.9,28.9,0,0,0-.31,5.18,28.83,28.83,0,0,0,.31,5.18,5,5,0,0,0,1.34,2.49,5.55,5.55,0,0,0,4,1.49,5.22,5.22,0,0,0,5.57-4.22Z"/><path class="cls-2" d="M79.54,134.87v-24.6H97v3.35H83.69v7.19H95.05v3.32H83.69v7.39H97v3.35Z"/><path class="cls-2" d="M121.65,127.51a8.89,8.89,0,0,1-3.38,5.63,11.26,11.26,0,0,1-13.55-.69,7.3,7.3,0,0,1-2.34-4.07,14.54,14.54,0,0,1-.27-2.6c0-.43,0-.94,0-1.52v-3.38c0-.58,0-1.08,0-1.52a14.42,14.42,0,0,1,.27-2.59,7.36,7.36,0,0,1,2.34-4.08,10.36,10.36,0,0,1,7.18-2.63q8.25,0,9.75,7.57h-4.22a5.18,5.18,0,0,0-5.53-4.21,5.55,5.55,0,0,0-4,1.48,5,5,0,0,0-1.34,2.49,28.9,28.9,0,0,0-.31,5.18,28.83,28.83,0,0,0,.31,5.18,5,5,0,0,0,1.34,2.49,5.55,5.55,0,0,0,4,1.49,5.21,5.21,0,0,0,5.57-4.22Z"/><path class="cls-2" d="M146.22,124.26c0,.58,0,1.09,0,1.52a12.9,12.9,0,0,1-.27,2.6,7.41,7.41,0,0,1-2.3,4.07,11.17,11.17,0,0,1-14.4,0,7.3,7.3,0,0,1-2.34-4.07,14.54,14.54,0,0,1-.27-2.6c0-.43,0-.94,0-1.52v-3.38c0-.58,0-1.08,0-1.52a14.42,14.42,0,0,1,.27-2.59,7.36,7.36,0,0,1,2.34-4.08,11.17,11.17,0,0,1,14.4,0,7.48,7.48,0,0,1,2.3,4.08,12.79,12.79,0,0,1,.27,2.59c0,.44,0,.94,0,1.52Zm-4.45-6.87a4.61,4.61,0,0,0-1.31-2.45,6.21,6.21,0,0,0-8.14,0,4.6,4.6,0,0,0-1.3,2.45,28.53,28.53,0,0,0-.31,5.18,28.45,28.45,0,0,0,.31,5.18,4.63,4.63,0,0,0,1.3,2.46,6.21,6.21,0,0,0,8.14,0,4.64,4.64,0,0,0,1.31-2.46,29.71,29.71,0,0,0,.3-5.18A29.79,29.79,0,0,0,141.77,117.39Z"/><path class="cls-2" d="M167.06,133.18a11.94,11.94,0,0,1-7.06,1.9q-6.1,0-9.67-3.25l2.76-2.45a10,10,0,0,0,7,2.35q5.64,0,5.64-3.77a3.11,3.11,0,0,0-1.07-2.56,6.08,6.08,0,0,0-3-1l-3.22-.42a9.76,9.76,0,0,1-5.19-2,5.84,5.84,0,0,1-2-4.7,6.35,6.35,0,0,1,2.46-5.22,10.22,10.22,0,0,1,6.68-2,12.8,12.8,0,0,1,8.48,2.8l-2.65,2.35a8.91,8.91,0,0,0-5.95-1.9q-5,0-5,3.84a2.73,2.73,0,0,0,1,2.28,6.29,6.29,0,0,0,3.07,1.14l3.11.41a10.6,10.6,0,0,1,5.1,1.83,6.06,6.06,0,0,1,2.23,5A6.19,6.19,0,0,1,167.06,133.18Z"/><path class="cls-2" d="M184.72,124.75v10.12h-4.14V124.75l-8.18-14.48h4.53l5.72,10.82,5.72-10.82h4.53Z"/><path class="cls-2" d="M211.36,133.18a11.94,11.94,0,0,1-7.06,1.9q-6.11,0-9.67-3.25l2.76-2.45a10,10,0,0,0,7,2.35q5.64,0,5.64-3.77a3.09,3.09,0,0,0-1.08-2.56,6,6,0,0,0-3-1l-3.22-.42a9.76,9.76,0,0,1-5.19-2,5.84,5.84,0,0,1-2-4.7,6.37,6.37,0,0,1,2.45-5.22,10.26,10.26,0,0,1,6.68-2,12.81,12.81,0,0,1,8.49,2.8l-2.65,2.35a8.91,8.91,0,0,0-6-1.9q-5,0-5,3.84a2.73,2.73,0,0,0,1,2.28,6.29,6.29,0,0,0,3.07,1.14l3.11.41a10.6,10.6,0,0,1,5.1,1.83,6.06,6.06,0,0,1,2.23,5A6.19,6.19,0,0,1,211.36,133.18Z"/><path class="cls-2" d="M229.33,113.62v21.25h-4.15V113.62h-7.52v-3.35h19.19v3.35Z"/><path class="cls-2" d="M242,134.87v-24.6h17.47v3.35H246.11v7.19h11.36v3.32H246.11v7.39h13.32v3.35Z"/><path class="cls-2" d="M285.45,134.87V118.43l-6.29,12h-3.07l-6.45-12v16.44h-4.15v-24.6h4.15l8,15.31,7.83-15.31h4.15v24.6Z"/><path class="cls-2" d="M325.26,127.51a8.89,8.89,0,0,1-3.38,5.63,11.26,11.26,0,0,1-13.55-.69,7.3,7.3,0,0,1-2.34-4.07,14.54,14.54,0,0,1-.27-2.6c0-.43,0-.94,0-1.52v-3.38c0-.58,0-1.08,0-1.52a14.42,14.42,0,0,1,.27-2.59,7.36,7.36,0,0,1,2.34-4.08,10.36,10.36,0,0,1,7.18-2.63q8.25,0,9.75,7.57H321a5.18,5.18,0,0,0-5.53-4.21,5.55,5.55,0,0,0-4,1.48,5,5,0,0,0-1.34,2.49,28.9,28.9,0,0,0-.31,5.18,28.83,28.83,0,0,0,.31,5.18,5,5,0,0,0,1.34,2.49,5.55,5.55,0,0,0,4,1.49,5.21,5.21,0,0,0,5.57-4.22Z"/><path class="cls-2" d="M349.83,124.26c0,.58,0,1.09,0,1.52a13.67,13.67,0,0,1-.27,2.6,7.41,7.41,0,0,1-2.3,4.07,11.17,11.17,0,0,1-14.4,0,7.3,7.3,0,0,1-2.34-4.07,14.54,14.54,0,0,1-.27-2.6c0-.43,0-.94,0-1.52v-3.38c0-.58,0-1.08,0-1.52a14.42,14.42,0,0,1,.27-2.59,7.36,7.36,0,0,1,2.34-4.08,11.17,11.17,0,0,1,14.4,0,7.48,7.48,0,0,1,2.3,4.08,13.56,13.56,0,0,1,.27,2.59c0,.44,0,.94,0,1.52Zm-4.45-6.87a4.61,4.61,0,0,0-1.31-2.45,6.21,6.21,0,0,0-8.14,0,4.6,4.6,0,0,0-1.3,2.45,28.53,28.53,0,0,0-.31,5.18,28.45,28.45,0,0,0,.31,5.18,4.63,4.63,0,0,0,1.3,2.46,6.21,6.21,0,0,0,8.14,0,4.64,4.64,0,0,0,1.31-2.46,29.71,29.71,0,0,0,.3-5.18A29.79,29.79,0,0,0,345.38,117.39Z"/><path class="cls-2" d="M371.44,134.87l-5.76-10.36H360.5v10.36h-4.14v-24.6H367a9.07,9.07,0,0,1,6.18,2,6.43,6.43,0,0,1,2.3,5.15,6.18,6.18,0,0,1-1.57,4.28A7.24,7.24,0,0,1,370,124l6.3,10.88Zm-4.8-21.25H360.5v7.71h6.14q4.65,0,4.65-3.84T366.64,113.62Z"/><path class="cls-2" d="M398.62,123.06a9.29,9.29,0,0,1-6.37,2.14H386v9.67h-4.15v-24.6h10.37a9.33,9.33,0,0,1,6.37,2.11,6.82,6.82,0,0,1,2.38,5.35A6.75,6.75,0,0,1,398.62,123.06Zm-6.6-9.44h-6v8.19h6q4.83,0,4.83-4.08T392,113.62Z"/><path class="cls-2" d="M425.07,124.26c0,.58,0,1.09,0,1.52a12.9,12.9,0,0,1-.27,2.6,7.41,7.41,0,0,1-2.3,4.07,11.17,11.17,0,0,1-14.4,0,7.41,7.41,0,0,1-2.34-4.07,13.76,13.76,0,0,1-.26-2.6c0-.43,0-.94,0-1.52v-3.38c0-.58,0-1.08,0-1.52a13.65,13.65,0,0,1,.26-2.59,7.48,7.48,0,0,1,2.34-4.08,11.17,11.17,0,0,1,14.4,0,7.48,7.48,0,0,1,2.3,4.08,12.79,12.79,0,0,1,.27,2.59c0,.44,0,.94,0,1.52Zm-4.45-6.87a4.61,4.61,0,0,0-1.31-2.45,6.21,6.21,0,0,0-8.14,0,4.6,4.6,0,0,0-1.3,2.45,28.53,28.53,0,0,0-.31,5.18,28.45,28.45,0,0,0,.31,5.18,4.63,4.63,0,0,0,1.3,2.46,6.21,6.21,0,0,0,8.14,0,4.64,4.64,0,0,0,1.31-2.46,29.42,29.42,0,0,0,.31-5.18A29.5,29.5,0,0,0,420.62,117.39Z"/><path class="cls-2" d="M446.68,134.87l-5.75-10.36h-5.19v10.36H431.6v-24.6h10.59a9.07,9.07,0,0,1,6.18,2,6.44,6.44,0,0,1,2.31,5.15,6.19,6.19,0,0,1-1.58,4.28,7.24,7.24,0,0,1-3.88,2.25l6.3,10.88Zm-4.8-21.25h-6.14v7.71h6.14q4.65,0,4.65-3.84T441.88,113.62Z"/><path class="cls-2" d="M472.83,134.87l-1.89-4.94H460.16l-1.88,4.94h-4.42l10-24.6h3.34l10,24.6Zm-7.18-19-4.26,10.91h8.4Z"/><path class="cls-2" d="M490.75,113.62v21.25h-4.14V113.62h-7.53v-3.35h19.2v3.35Z"/><path class="cls-2" d="M503.38,134.87v-24.6h4.15v24.6Z"/><path class="cls-2" d="M533.71,124.26c0,.58,0,1.09,0,1.52a13.67,13.67,0,0,1-.27,2.6,7.41,7.41,0,0,1-2.3,4.07,11.17,11.17,0,0,1-14.4,0,7.3,7.3,0,0,1-2.34-4.07,14.54,14.54,0,0,1-.27-2.6c0-.43,0-.94,0-1.52v-3.38c0-.58,0-1.08,0-1.52a14.42,14.42,0,0,1,.27-2.59,7.36,7.36,0,0,1,2.34-4.08,11.17,11.17,0,0,1,14.4,0,7.48,7.48,0,0,1,2.3,4.08,13.56,13.56,0,0,1,.27,2.59c0,.44,0,.94,0,1.52Zm-4.45-6.87a4.61,4.61,0,0,0-1.31-2.45,6.21,6.21,0,0,0-8.14,0,4.6,4.6,0,0,0-1.3,2.45,28.53,28.53,0,0,0-.31,5.18,28.45,28.45,0,0,0,.31,5.18,4.63,4.63,0,0,0,1.3,2.46,6.21,6.21,0,0,0,8.14,0,4.64,4.64,0,0,0,1.31-2.46,29.71,29.71,0,0,0,.3-5.18A29.79,29.79,0,0,0,529.26,117.39Z"/><path class="cls-2" d="M557,134.87l-12.63-17.31v17.31h-4.14v-24.6H544l12.63,17.28V110.27h4.14v24.6Z"/></g></g></svg>