<svg xmlns="http://www.w3.org/2000/svg" viewBox="0 0 52.05 30"><defs><style>.cls-1{fill:#b143ff;}.cls-2{fill:#ffec00;}</style></defs><g id="圖層_2" data-name="圖層 2"><g id="圖層_1-2" data-name="圖層 1"><polygon class="cls-1" points="52.05 0 6.45 0 0 7.86 0 30 45.6 30 52.05 22.14 52.05 0"/><polygon class="cls-2" points="38.88 10.26 38.02 13.93 43.79 13.93 44.65 10.26 38.88 10.26"/><polygon class="cls-2" points="36.97 18.58 42.74 18.58 43.61 14.91 37.84 14.91 36.97 18.58"/><path class="cls-2" d="M36.13,14.27l.94-4H24.55L21.17,24.61l-2.83-3.49h.38l2.39-2.24,2-8.62H8.83L5.34,25.13h5.19l1.16-4.9,4,4.92H21.6v0h12l1-4H27.19l.34-1.42h7.32l.95-4H28.47l.33-1.42ZM12.42,17.11l.67-2.84H17l-.94,4-1-1.18Z"/><polygon class="cls-2" points="6.06 5.33 8.41 2.53 46.71 2.53 44.37 5.33 6.06 5.33"/></g></g></svg>